<?xml version="1.0" encoding="utf-8"?>
<!-- Generator: Adobe Illustrator 15.0.2, SVG Export Plug-In  -->
<!DOCTYPE svg PUBLIC "-//W3C//DTD SVG 1.1//EN" "http://www.w3.org/Graphics/SVG/1.1/DTD/svg11.dtd" [
	<!ENTITY ns_flows "http://ns.adobe.com/Flows/1.0/">
]>
<svg version="1.1"
	 xmlns="http://www.w3.org/2000/svg" xmlns:xlink="http://www.w3.org/1999/xlink" xmlns:a="http://ns.adobe.com/AdobeSVGViewerExtensions/3.0/"
	 x="0px" y="0px" width="701px" height="132px" viewBox="0 0 701 132" enable-background="new 0 0 701 132" xml:space="preserve">
<defs>
</defs>
<g>
	<defs>
		<rect id="SVGID_1_" y="0" width="701.084" height="131.715"/>
	</defs>
	<clipPath id="SVGID_2_">
		<use xlink:href="#SVGID_1_"  overflow="visible"/>
	</clipPath>
	<path clip-path="url(#SVGID_2_)" fill="#3756A5" d="M701.084,131.715H37.872C16.955,131.715,0,114.76,0,93.843V37.868
		C0,16.951,16.955,0,37.872,0h663.212V131.715z"/>
	<path clip-path="url(#SVGID_2_)" fill="#FFFFFF" d="M51.173,89.094V37.582h6.764l15.382,26.061
		c3.562,6.04,6.338,11.462,8.618,16.741l0.143-0.076c-0.568-6.881-0.711-13.149-0.711-21.178V37.582h5.838v51.512h-6.267
		L65.697,62.953c-3.344-5.728-6.549-11.613-8.972-17.194l-0.21,0.075c0.357,6.499,0.5,12.686,0.5,21.245v22.016H51.173z"/>
	<path clip-path="url(#SVGID_2_)" fill="#FFFFFF" d="M117.249,67.003c0.072-4.283-1.636-10.932-8.689-10.932
		c-6.335,0-9.115,6.271-9.612,10.932H117.249z M98.877,71.819c0.143,9.099,5.552,12.846,11.823,12.846
		c4.484,0,7.189-0.845,9.54-1.913l1.068,4.815c-2.208,1.067-5.981,2.363-11.466,2.363c-10.608,0-16.946-7.562-16.946-18.721
		c0-11.16,6.124-19.954,16.164-19.954c11.252,0,14.242,10.628,14.242,17.434c0,1.371-0.139,2.442-0.215,3.129H98.877z"/>
	<path clip-path="url(#SVGID_2_)" fill="#FFFFFF" d="M132.552,52.103l4.559,18.802c0.993,4.126,1.922,7.949,2.562,11.772h0.214
		c0.783-3.747,1.927-7.723,3.062-11.772l5.628-18.802h5.27l5.338,18.494c1.283,4.434,2.28,8.333,3.062,12.08h0.215
		c0.568-3.747,1.493-7.646,2.632-12l4.917-18.574h6.192l-11.109,36.993h-5.699l-5.266-17.653c-1.207-4.135-2.208-7.803-3.057-12.156
		h-0.148c-0.853,4.429-1.922,8.249-3.133,12.228l-5.552,17.582h-5.696l-10.401-36.993H132.552z"/>
	<path clip-path="url(#SVGID_2_)" fill="#FFFFFF" d="M213.651,70.216c-6.839-0.155-14.599,1.148-14.599,8.327
		c0,4.359,2.704,6.424,5.909,6.424c4.488,0,7.336-3.062,8.333-6.195c0.214-0.683,0.357-1.451,0.357-2.137V70.216z M219.705,80.227
		c0,3.214,0.143,6.348,0.568,8.867h-5.699l-0.497-4.665h-0.21c-1.927,2.905-5.628,5.506-10.541,5.506
		c-6.978,0-10.54-5.274-10.54-10.62c0-8.947,7.407-13.839,20.723-13.759v-0.769c0-3.054-0.786-8.56-7.836-8.56
		c-3.2,0-6.549,1.068-8.971,2.755l-1.422-4.438c2.847-1.989,6.978-3.285,11.323-3.285c10.536,0,13.102,7.723,13.102,15.134V80.227z"
		/>
	<path clip-path="url(#SVGID_2_)" fill="#FFFFFF" d="M236.004,43.231v8.871h8.972v5.123h-8.972v19.945
		c0,4.585,1.211,7.186,4.698,7.186c1.712,0,2.709-0.151,3.634-0.454l0.286,5.043c-1.211,0.534-3.134,0.992-5.556,0.992
		c-2.919,0-5.27-1.072-6.764-2.906c-1.783-1.986-2.423-5.275-2.423-9.632V57.225h-5.341v-5.123h5.341v-6.806L236.004,43.231z"/>
	<path clip-path="url(#SVGID_2_)" fill="#FDB413" d="M579.172,46.852c2.036,0,3.702-1.144,3.929-2.604l2.014-24.345
		c0-2.405-2.632-4.383-5.938-4.383c-3.298,0-5.918,1.978-5.918,4.383l2.006,24.345c0.219,1.46,1.892,2.604,3.912,2.604H579.172z"/>
	<path clip-path="url(#SVGID_2_)" fill="#FDB413" d="M566.91,54.454c1.021-1.884,0.941-4.008-0.126-4.95l-18.65-14.036
		c-1.935-1.203-4.845,0.244-6.49,3.323c-1.661,3.061-1.366,6.485,0.572,7.692l20.645,10.314c1.286,0.517,3.045-0.476,4.055-2.36
		L566.91,54.454z"/>
	<path clip-path="url(#SVGID_2_)" fill="#FDB413" d="M591.438,54.437c1.021,1.885,2.771,2.877,4.062,2.36l20.646-10.313
		c1.946-1.212,2.229-4.631,0.58-7.702c-1.648-3.071-4.563-4.517-6.499-3.315l-18.646,14.036c-1.068,0.939-1.148,3.067-0.135,4.952
		L591.438,54.437z"/>
	<path clip-path="url(#SVGID_2_)" fill="#FDB413" d="M579.172,77.26c2.036,0,3.702,1.127,3.929,2.595l2.014,24.341
		c0,2.406-2.632,4.382-5.938,4.382c-3.298,0-5.918-1.976-5.918-4.382l2.006-24.341c0.219-1.468,1.892-2.595,3.912-2.595H579.172z"/>
	<path clip-path="url(#SVGID_2_)" fill="#FDB413" d="M591.438,69.65c1.021-1.88,2.771-2.869,4.062-2.343l20.646,10.305
		c1.946,1.212,2.229,4.636,0.58,7.701c-1.648,3.059-4.563,4.514-6.499,3.322l-18.646-14.03c-1.068-0.951-1.148-3.071-0.135-4.955
		H591.438z"/>
	<path clip-path="url(#SVGID_2_)" fill="#FDB413" d="M566.91,69.65c1.021,1.88,0.941,4.004-0.126,4.955l-18.65,14.03
		c-1.935,1.191-4.845-0.264-6.49-3.322c-1.661-3.065-1.366-6.494,0.572-7.701l20.645-10.305c1.286-0.526,3.045,0.463,4.063,2.343
		H566.91z"/>
	<path clip-path="url(#SVGID_2_)" fill="#FFFFFF" d="M473.719,65.023c0-9.187-3.659-17.271-16.021-17.271
		c-6.343,0-11.378,1.91-14.121,3.622l2.003,7.377c2.516-1.699,6.52-3.104,10.31-3.104c6.271-0.021,7.293,3.803,7.293,6.255v0.585
		c-13.666-0.026-22.297,5.051-22.297,15.398c0,6.317,4.388,12.239,12.047,12.239c4.698,0,8.631-2.01,10.99-5.236h0.228
		c0,0,1.561,7.008,10.17,4.328c-0.458-2.92-0.602-6.031-0.602-9.779V65.023z M463.511,74.73c0,0.745-0.06,1.511-0.244,2.19
		c-0.795,2.815-3.503,5.188-6.898,5.188c-2.826,0-5.067-1.716-5.067-5.367c0-5.569,5.707-7.109,12.21-7.074V74.73z"/>
	<path clip-path="url(#SVGID_2_)" fill="#FFFFFF" d="M264.541,35.235c0,0,8.929,39.272,10.355,45.642
		c1.662,7.44,4.661,10.183,13.296,8.332l5.577-24.346c1.414-6.052,2.36-10.356,3.272-16.518h0.161
		c0.634,6.217,1.547,10.491,2.704,16.539c0,0,2.276,11.054,3.432,16.854c1.169,5.813,4.408,9.464,12.875,7.471l13.283-53.974h-10.73
		l-4.534,23.336c-1.215,6.789-2.322,12.104-3.175,18.316h-0.152c-0.774-6.156-1.762-11.254-3.003-17.871l-4.719-23.782h-11.176
		l-5.052,23.181c-1.426,7.048-2.771,12.74-3.621,18.738h-0.152c-0.874-5.653-2.036-12.804-3.293-19.618
		c0,0-2.999-16.584-4.046-22.301H264.541z"/>
	<path clip-path="url(#SVGID_2_)" fill="#FFFFFF" d="M359.358,65.023c0-9.187-3.654-17.271-16.008-17.271
		c-6.343,0-11.39,1.91-14.137,3.622l2.015,7.377c2.515-1.699,6.511-3.104,10.301-3.104c6.271-0.021,7.302,3.803,7.302,6.255v0.585
		c-13.674-0.026-22.305,5.051-22.305,15.398c0,6.317,4.395,12.239,12.033,12.239c4.707,0,8.644-2.01,10.999-5.236h0.236
		c0,0,1.56,7.008,10.166,4.328c-0.458-2.92-0.602-6.031-0.602-9.779V65.023z M349.159,74.73c0,0.745-0.059,1.511-0.261,2.19
		c-0.786,2.815-3.499,5.188-6.885,5.188c-2.827,0-5.073-1.716-5.073-5.367c0-5.569,5.716-7.109,12.219-7.074V74.73z"/>
	<polygon clip-path="url(#SVGID_2_)" fill="#FFFFFF" points="375.143,77.749 375.143,35.237 364.926,35.237 364.926,89.215 
		375.143,89.215 	"/>
	<path clip-path="url(#SVGID_2_)" fill="#FFFFFF" d="M505.021,35.235v39.824c0,5.484,0.967,9.324,3.023,11.676
		c1.805,2.064,4.767,3.391,8.32,3.391c3.011,0,5.985-0.611,7.39-1.17l-0.134-8.572c-1.043,0.278-2.239,0.493-3.883,0.493
		c-3.474,0-4.639-2.386-4.639-7.314V58.327h8.892V48H515.1V35.235H505.021z"/>
	<path clip-path="url(#SVGID_2_)" fill="#FFFFFF" d="M478.663,48.664V89.21h10.532V68.444c0-1.122,0.071-2.089,0.235-2.985
		c0.782-4.349,3.87-7.133,8.328-7.133c1.216,0,2.091,0.139,3.033,0.285V48.003c-0.791-0.173-1.334-0.252-2.318-0.252
		c-3.928,0-8.403,2.717-10.275,8.558h-0.29v-7.646H478.663z"/>
	<path clip-path="url(#SVGID_2_)" fill="#FFFFFF" d="M381.052,48.664V89.21h10.259V65.425c0-1.111,0.126-2.288,0.487-3.311
		c0.854-2.392,2.924-5.194,6.237-5.194c4.144,0,6.082,3.761,6.082,9.178V89.21h10.25V65.142c0-1.063,0.14-2.346,0.435-3.284
		c0.846-2.73,3.079-4.938,6.162-4.938c4.196,0,6.212,3.688,6.212,10.073V89.21h10.264V65.328c0-12.594-5.96-17.577-12.686-17.577
		c-2.987,0-5.325,0.799-7.458,2.195c-1.779,1.178-3.387,2.856-4.778,5.06h-0.159c-1.62-4.374-5.431-7.255-10.411-7.255
		c-6.385,0-9.253,3.477-11,6.422h-0.154v-5.51H381.052z"/>
	<path clip-path="url(#SVGID_2_)" fill="#FDB413" d="M621.667,87.041h0.215c0.23,0,0.412-0.089,0.412-0.279
		c0-0.188-0.143-0.294-0.388-0.294c-0.104,0-0.172,0.014-0.239,0.014V87.041z M621.658,88.272h-0.551v-2.153
		c0.16-0.026,0.462-0.08,0.833-0.08c0.424,0,0.61,0.067,0.745,0.176c0.138,0.094,0.222,0.253,0.222,0.463
		c0,0.232-0.18,0.422-0.44,0.501v0.025c0.21,0.085,0.318,0.24,0.383,0.543c0.058,0.312,0.113,0.446,0.146,0.525h-0.604
		c-0.068-0.079-0.097-0.269-0.152-0.491c-0.038-0.232-0.142-0.324-0.37-0.324h-0.21V88.272z M621.94,85.408
		c-0.879,0-1.556,0.795-1.556,1.754c0,0.964,0.677,1.737,1.567,1.737c0.897,0.017,1.558-0.773,1.558-1.737
		c0-0.959-0.66-1.754-1.558-1.754H621.94z M621.966,84.903c1.198,0,2.141,1.002,2.141,2.242c0,1.274-0.942,2.275-2.154,2.275
		c-1.193,0-2.166-1.001-2.166-2.275c0-1.24,0.973-2.242,2.166-2.242H621.966z"/>
</g>
</svg>
