<?xml version="1.0" encoding="utf-8"?>
<!-- Generator: Adobe Illustrator 15.0.2, SVG Export Plug-In  -->
<!DOCTYPE svg PUBLIC "-//W3C//DTD SVG 1.1//EN" "http://www.w3.org/Graphics/SVG/1.1/DTD/svg11.dtd" [
	<!ENTITY ns_flows "http://ns.adobe.com/Flows/1.0/">
]>
<svg version="1.1"
	 xmlns="http://www.w3.org/2000/svg" xmlns:xlink="http://www.w3.org/1999/xlink" xmlns:a="http://ns.adobe.com/AdobeSVGViewerExtensions/3.0/"
	 x="0px" y="0px" width="212px" height="207px" viewBox="0 0 212 207" enable-background="new 0 0 212 207" xml:space="preserve">
<defs>
</defs>
<g>
	<defs>
		<rect id="SVGID_1_" width="212.225" height="206.741"/>
	</defs>
	<clipPath id="SVGID_2_">
		<use xlink:href="#SVGID_1_"  overflow="visible"/>
	</clipPath>
	<path clip-path="url(#SVGID_2_)" fill="#003378" d="M48.13,117.191v-1.3l2.033-0.234V95.29l-2.033-0.232v-1.334h8.467
		c2.967,0,5.2,0.499,6.933,1.8c2.901,2.199,4.434,5.468,4.434,9.634c0,2.934-0.767,5.533-2.233,7.733
		c-2.1,3.101-4.934,4.301-9.134,4.301H48.13z M56.297,115.824c5.066,0,7.3-3.233,7.3-10.2c0-6.934-2.433-10.601-6.734-10.601
		c-0.699,0-1.6,0.101-2.766,0.234v20.4C54.93,115.759,55.664,115.824,56.297,115.824"/>
	<path clip-path="url(#SVGID_2_)" fill="#003378" d="M77.219,115.892v1.3h-7.133v-1.3l1.9-0.167v-8.834c0-2.4-0.167-3.5-1.468-3.5
		c-0.199,0-0.432,0.034-0.7,0.1v-1.199l5.668-1.701c-0.067,1.167-0.133,2.5-0.133,3.967v11.167L77.219,115.892z M73.819,93.257
		c1.2,0,2.166,0.966,2.166,2.167c0,1.2-0.966,2.166-2.166,2.166c-1.201,0-2.167-0.966-2.167-2.166
		C71.652,94.223,72.618,93.257,73.819,93.257"/>
	<path clip-path="url(#SVGID_2_)" fill="#003378" d="M84.142,117.69c-3.101,0-4.967-1.333-4.967-2.899c0-1.101,0.833-1.9,1.967-1.9
		c1.233,0,2.066,0.734,2.3,2.201c0.133,0.766,0.1,1.3,1.666,1.3c1.8,0,2.933-1,2.933-2.401c0-1.833-1.266-2.467-3.599-3.5
		c-2.9-1.3-4.534-2.167-4.534-4.533c0-2.8,2.767-5.299,6.668-5.299c1.932,0,3.033,0.8,3.033,1.966c0,1-0.767,1.733-1.967,1.733
		c-0.8,0-1.366-0.266-1.833-0.866s-0.4-1.433-0.9-1.433c-1.201,0-2.501,1.2-2.501,2.299c0,1.436,1.334,1.868,3.634,2.868
		c3.201,1.399,4.833,2.533,4.833,5.268C90.875,115.524,88.274,117.69,84.142,117.69"/>
	<path clip-path="url(#SVGID_2_)" fill="#003378" d="M99.899,117.658c-3.9,0-6.8-3.268-6.8-7.968c0-5.199,3.5-9.032,7.8-9.032
		c2.633,0,4.334,1.332,4.334,3.099c0,1.133-0.834,1.968-2.001,1.968c-1.366,0-2.232-0.835-2.232-2.268
		c0-0.067,0.032-0.199,0.032-0.366c0-0.767-0.1-1.067-0.933-1.067c-1.867,0-3.634,2.167-3.634,5.734c0,4.633,2.234,7.4,5,7.4
		c1.501,0,2.767-0.833,3.667-2.501l1.035,0.767C104.866,116.158,102.601,117.658,99.899,117.658"/>
	<path clip-path="url(#SVGID_2_)" fill="#003378" d="M111.125,116.291c-2.168-1.6-3.4-4.233-3.4-7.167
		c0-2.966,1.267-5.533,3.434-7.167c1.134-0.867,2.5-1.334,3.833-1.334c1.467,0,2.8,0.467,3.967,1.334
		c2.167,1.634,3.434,4.201,3.434,7.167c0,2.968-1.267,5.533-3.434,7.167c-1.167,0.866-2.5,1.333-3.866,1.333
		C113.658,117.624,112.292,117.157,111.125,116.291 M111.525,109.124c0,4.768,1.266,7.2,3.466,7.2c2.367,0,3.601-2.399,3.601-7.2
		c0-4.768-1.267-7.167-3.468-7.167C112.757,101.958,111.525,104.356,111.525,109.124"/>
	<path clip-path="url(#SVGID_2_)" fill="#003378" d="M125.313,105.291c-0.6-1.467-0.934-2.2-1.934-2.2c-0.2,0-0.434,0-0.667,0.066
		v-1.167l4.4-1.299l4.967,12.934l3.566-7.567c0.101-0.233,0.167-0.434,0.167-0.6c0-0.234-0.734-0.434-1.366-1.067
		c-0.435-0.433-0.7-1.033-0.7-1.6c0-1.3,0.966-2.167,2.267-2.167c1.334,0,2.133,0.766,2.133,2.101c0,2.366-2.733,7-6.233,14.7
		h-1.732L125.313,105.291z"/>
	<path clip-path="url(#SVGID_2_)" fill="#003378" d="M146.089,117.657c-3.767,0-6.467-3.066-6.467-7.8
		c0-5.399,3.101-9.234,6.767-9.234c3.001,0,5.267,2.366,5.768,6.434l-9.233,2.467c0.565,3.6,2.167,5.601,4.633,5.601
		c1.367,0,2.5-0.768,3.633-2.367l1.067,0.833C150.822,116.258,148.656,117.657,146.089,117.657 M146.089,107.19
		c1.666-0.5,2.467-0.799,2.467-2.166c0-1.801-1.101-3.134-2.433-3.134c-2.067,0-3.334,2.067-3.334,6.034v0.3L146.089,107.19z"/>
	<path clip-path="url(#SVGID_2_)" fill="#003378" d="M154.363,115.892l1.833-0.167v-7.267c0-3.5-0.6-5.267-1.833-5.267
		c-0.266,0-0.566,0.066-0.899,0.199v-1.167l4.167-1.532c0.834,1.166,1.267,2.832,1.532,5.133c1.201-3.5,2.701-5.234,4.501-5.234
		c1.167,0,1.968,0.8,1.968,1.934c0,1.2-1,2.1-2.268,2.1c-1.001,0-1.699-0.433-2-0.433c-0.5,0-1.734,2.633-1.734,7.399v4.134
		l2.2,0.167v1.3h-7.467V115.892z"/>
	<path clip-path="url(#SVGID_2_)" fill="#003378" d="M20.668,157.582l2-0.232v-20.368l-2-0.232v-1.334h9.933h0.934
		c2.2,0,3.733-0.034,4.633-0.467l1.701,7.366l-1.134,0.3c-1.666-4.232-3.632-5.899-7.501-5.899c-0.599,0-1.465,0.101-2.632,0.267
		v9.135c0.466,0.032,0.899,0.067,1.266,0.067c2.6,0,3.701-1,4.033-3.702h1.202v8.9h-1.202c-0.266-2.833-1.5-4-4.166-4
		c-0.367,0-0.733,0.034-1.133,0.066v9.901l2,0.133v1.401h-7.934V157.582z"/>
	<path clip-path="url(#SVGID_2_)" fill="#003378" d="M39.638,157.582l1.833-0.167v-7.266c0-3.5-0.599-5.268-1.833-5.268
		c-0.266,0-0.566,0.067-0.9,0.2v-1.167l4.168-1.531c0.834,1.164,1.266,2.831,1.532,5.132c1.201-3.5,2.701-5.233,4.501-5.233
		c1.167,0,1.968,0.799,1.968,1.935c0,1.199-1.001,2.099-2.269,2.099c-1,0-1.698-0.432-1.999-0.432c-0.5,0-1.734,2.633-1.734,7.397
		v4.134l2.2,0.167v1.302h-7.467V157.582z"/>
	<path clip-path="url(#SVGID_2_)" fill="#003378" d="M58.079,159.351c-3.766,0-6.467-3.068-6.467-7.802
		c0-5.399,3.101-9.233,6.767-9.233c3.001,0,5.267,2.366,5.768,6.434l-9.234,2.467c0.567,3.601,2.166,5.601,4.633,5.601
		c1.367,0,2.5-0.768,3.633-2.367l1.067,0.833C62.813,157.949,60.647,159.351,58.079,159.351 M58.079,148.882
		c1.668-0.499,2.467-0.8,2.467-2.166c0-1.801-1.1-3.134-2.433-3.134c-2.067,0-3.333,2.068-3.333,6.034v0.3L58.079,148.882z"/>
	<path clip-path="url(#SVGID_2_)" fill="#003378" d="M71.06,157.415l1.701,0.167v1.302h-6.767v-1.302l1.767-0.167v-9.999
		c0-1.699-0.433-2.501-1.334-2.501c-0.133,0-0.3,0-0.433,0.034v-1.168l3.9-1.397c0.566,0.665,0.866,1.665,1.033,3.032
		c1.667-2.001,3.434-3.001,5.334-3.001c3.2,0,4.767,2.134,4.767,6.467v8.533l1.734,0.167v1.302h-6.767v-1.302l1.699-0.167v-8.7
		c0-2.633-0.833-3.833-2.866-3.833c-1.434,0-2.768,0.733-3.768,2.233V157.415z"/>
	<path clip-path="url(#SVGID_2_)" fill="#003378" d="M91.184,159.35c-3.9,0-6.801-3.267-6.801-7.968c0-5.199,3.5-9.033,7.801-9.033
		c2.633,0,4.333,1.333,4.333,3.101c0,1.132-0.833,1.967-2,1.967c-1.367,0-2.232-0.835-2.232-2.268c0-0.066,0.032-0.198,0.032-0.365
		c0-0.769-0.1-1.068-0.934-1.068c-1.866,0-3.633,2.168-3.633,5.735c0,4.632,2.234,7.399,5,7.399c1.501,0,2.767-0.833,3.667-2.501
		l1.034,0.768C96.151,157.85,93.885,159.35,91.184,159.35"/>
	<path clip-path="url(#SVGID_2_)" fill="#003378" d="M98.591,157.582l1.767-0.167v-18.333c0-1.701-0.4-2.534-1.333-2.534
		c-0.134,0-0.301,0-0.434,0.034v-1.133l5.167-1.868c-0.067,0.967-0.067,1.9-0.067,2.866v8.736c1.634-1.869,3.301-2.769,5.034-2.769
		c3.167,0,4.733,2.134,4.733,6.467v8.533l1.767,0.167v1.302h-6.802v-1.302l1.702-0.167v-8.7c0-2.633-0.834-3.833-2.868-3.833
		c-1.299,0-2.599,0.733-3.6,2.233v10.3l1.7,0.167v1.302h-6.767V157.582z"/>
	<path clip-path="url(#SVGID_2_)" fill="#003378" d="M125.673,151.716l1.301-0.267c1.833,4.268,4.566,6.5,7.601,6.5
		c2.634,0,4.4-1.699,4.4-4c0-1.366-0.435-2.4-1.334-3.101c-1.566-1.232-3.434-1.698-5.167-2.434
		c-3.933-1.633-5.833-3.466-5.833-6.967c0-3.833,2.733-6.533,6.533-6.533c2.001,0,3.4,0.901,4.2,0.901
		c0.434,0,1.166-0.202,2.166-0.668l1.335,6.768l-1.234,0.332c-1.732-4.033-3.8-6-6.467-6c-2.233,0-3.8,1.434-3.8,3.601
		c0,2.534,1.9,3.5,5.533,4.968c1.9,0.767,3.768,1.266,5.301,2.865c1.134,1.169,1.699,2.634,1.699,4.468
		c0,4.199-3.134,7.201-7.4,7.201c-2.466,0-4.233-1.2-5.266-1.2c-0.634,0-1.368,0.266-2.234,0.767L125.673,151.716z"/>
	<path clip-path="url(#SVGID_2_)" fill="#003378" d="M143.468,144.148v-1.301h2.1l0.034-4.598l3.367-1.869l-0.034,6.467h3.767v1.301
		H148.9l-0.066,9.601v0.201c0,2.231,0.6,3.3,1.935,3.3c0.799,0,1.499-0.4,2.3-1.135l0.5,0.833c-1.1,1.534-2.667,2.401-4.435,2.401
		c-2.766,0-3.667-1.534-3.667-4.968v-0.199l0.068-10.034H143.468z"/>
	<path clip-path="url(#SVGID_2_)" fill="#003378" d="M156.503,146.981c-0.6-1.467-0.932-2.199-1.932-2.199
		c-0.201,0-0.435,0-0.668,0.066v-1.167l4.401-1.299l4.967,12.934l3.566-7.566c0.1-0.235,0.167-0.435,0.167-0.602
		c0-0.232-0.767-0.433-1.4-1.065c-0.433-0.434-0.666-1.034-0.666-1.602c0-1.3,0.966-2.167,2.266-2.167
		c1.333,0,2.134,0.768,2.134,2.102c0,1.799-1.967,5.933-5.334,12.633c-2.666,5.334-4.033,8.035-6.333,8.035
		c-1.234,0-2.067-0.768-2.067-1.868c0-1.167,0.833-1.966,2.034-1.966c1.067,0,1.699,0.633,1.967,0.633c0.3,0,1-0.9,1.766-2.766
		L156.503,146.981z"/>
	<path clip-path="url(#SVGID_2_)" fill="#003378" d="M177.18,157.582v1.302h-6.767v-1.302l1.767-0.167v-18.333
		c0-1.701-0.4-2.534-1.334-2.534c-0.133,0-0.3,0-0.433,0.034v-1.133l5.166-1.868c-0.066,0.967-0.099,1.9-0.099,2.866v20.968
		L177.18,157.582z"/>
	<path clip-path="url(#SVGID_2_)" fill="#003378" d="M185.391,159.351c-3.767,0-6.467-3.068-6.467-7.802
		c0-5.399,3.101-9.233,6.767-9.233c3,0,5.267,2.366,5.768,6.434l-9.234,2.467c0.567,3.601,2.166,5.601,4.634,5.601
		c1.366,0,2.5-0.768,3.633-2.367l1.066,0.833C190.124,157.949,187.958,159.351,185.391,159.351 M185.391,148.882
		c1.668-0.499,2.467-0.8,2.467-2.166c0-1.801-1.101-3.134-2.434-3.134c-2.066,0-3.333,2.068-3.333,6.034v0.3L185.391,148.882z"/>
	<path clip-path="url(#SVGID_2_)" fill="#003378" d="M65.227,199.273l2-0.232v-8.301l-6.233-12.067l-1.733-0.166v-1.4h7.966v1.4
		l-1.632,0.166l5.034,10.167l3.566-7.199c0.366-0.734,0.533-1.334,0.533-1.7c0-0.899-0.8-1.367-2.366-1.434v-1.4h6.833v1.4
		c-1.8,0.066-2.4,0.933-3.267,2.633l-4.733,9.5v8.401l2,0.232v1.302h-7.968V199.273z"/>
	<path clip-path="url(#SVGID_2_)" fill="#003378" d="M80.718,199.674c-2.168-1.6-3.4-4.232-3.4-7.167
		c0-2.967,1.266-5.533,3.432-7.167c1.135-0.867,2.501-1.334,3.834-1.334c1.467,0,2.8,0.467,3.967,1.334
		c2.168,1.634,3.434,4.2,3.434,7.167s-1.266,5.533-3.434,7.167c-1.167,0.866-2.5,1.333-3.867,1.333
		C83.251,201.007,81.885,200.54,80.718,199.674 M81.118,192.507c0,4.768,1.266,7.2,3.466,7.2c2.367,0,3.6-2.398,3.6-7.2
		c0-4.768-1.266-7.167-3.467-7.167C82.351,185.34,81.118,187.739,81.118,192.507"/>
	<path clip-path="url(#SVGID_2_)" fill="#003378" d="M94.571,190.174c0-3.567,2.634-6.099,6.801-6.099
		c0.233,0,0.466,0.031,0.7,0.031c1.9-2.233,3.6-3.366,5.067-3.366c1.232,0,1.999,0.766,1.999,1.967c0,0.933-0.7,1.566-1.833,1.566
		c-1.232,0-1.733-1.133-2.099-1.133c-0.3,0-1,0.4-1.701,1.267c2.667,1,4.134,3.066,4.134,5.668c0,3.333-2.733,5.833-6.6,5.833
		c-0.6,0-1.167-0.067-1.833-0.234c-1.035,0.667-1.568,1.133-1.568,1.401c0,0.533,1.268,0.599,3.667,0.766
		c2.734,0.199,4.601,0.366,5.601,0.935c1.399,0.766,2.166,1.932,2.166,3.365c0,3.2-2.866,4.602-8.866,4.602
		c-4.434,0-6.634-0.868-6.634-2.633c0-1.201,1.067-2.302,3.166-3.435c-1.799-0.232-2.633-0.7-2.633-1.801
		c0-1.099,1.233-2.2,3.5-3.833C95.54,193.808,94.571,192.273,94.571,190.174 M96.404,203.475c0,1.7,1.501,2.134,4.868,2.134
		c3.233,0,4.899-0.802,4.899-2.234c0-1.9-2.399-2.099-7.565-2.367C97.14,201.575,96.404,202.508,96.404,203.475 M104.272,189.974
		c0-3-1.234-4.667-3.134-4.667c-1.9,0-3.099,1.667-3.099,4.667s1.199,4.667,3.099,4.667
		C103.006,194.641,104.272,192.974,104.272,189.974"/>
	<path clip-path="url(#SVGID_2_)" fill="#003378" d="M121.85,188.94c0-1.634-0.233-2.334-1.4-2.334c-0.101,0-0.233,0.034-0.4,0.034
		v-1.267l5.302-1.4c-0.068,1.167-0.101,2.5-0.101,3.967v8.2c0,1.7,0.3,2.533,1.3,2.533c0.1,0,0.266,0,0.4-0.033v1.134l-3.9,1.268
		c-0.567-0.666-0.934-1.602-1.066-2.702c-1.635,1.768-3.301,2.635-5.268,2.635c-3.301,0-4.8-2.134-4.8-6.467v-5.567
		c0-1.634-0.233-2.3-1.334-2.3h-0.333v-1.267l5.167-1.4c-0.066,1.167-0.133,2.5-0.133,3.967v6.732c0,2.736,0.666,4.036,2.8,4.036
		c1.732,0,2.899-0.802,3.767-2.436V188.94z"/>
	<path clip-path="url(#SVGID_2_)" fill="#003378" d="M129.093,199.273l1.834-0.166v-7.267c0-3.5-0.6-5.266-1.834-5.266
		c-0.266,0-0.565,0.065-0.899,0.198v-1.167l4.168-1.531c0.833,1.164,1.266,2.831,1.532,5.133c1.201-3.5,2.7-5.234,4.5-5.234
		c1.167,0,1.968,0.799,1.968,1.934c0,1.2-1,2.1-2.268,2.1c-1,0-1.699-0.432-1.999-0.432c-0.501,0-1.734,2.633-1.734,7.397v4.135
		l2.2,0.166v1.302h-7.468V199.273z"/>
	<path clip-path="url(#SVGID_2_)" fill="#003378" d="M141.602,185.84v-1.301h2.1l0.034-4.598l3.366-1.869l-0.033,6.467h3.768v1.301
		h-3.802l-0.066,9.602v0.199c0,2.232,0.601,3.301,1.935,3.301c0.799,0,1.499-0.4,2.3-1.135l0.5,0.834
		c-1.1,1.533-2.667,2.4-4.435,2.4c-2.766,0-3.667-1.533-3.667-4.967v-0.2l0.068-10.034H141.602z"/>
	<path clip-path="url(#SVGID_2_)" fill="#003378" d="M0,1.802C0,0.801,0.901,0,1.901,0h2.502l41.625,44.228h0.1V2.903
		c0-1.001,0.801-1.901,1.901-1.901h9.205c1.002,0,1.902,0.9,1.902,1.901v67.34c0,1-0.9,1.801-1.902,1.801h-2.401L13.009,26.117
		h-0.101v43.025c0,1.002-0.8,1.902-1.901,1.902H1.901c-1,0-1.901-0.9-1.901-1.902V1.802z"/>
	<path clip-path="url(#SVGID_2_)" fill="#003378" d="M73.342,2.903c0-1.001,0.8-1.901,1.901-1.901h40.724
		c1.101,0,1.901,0.9,1.901,1.901v8.204c0,1.002-0.801,1.902-1.901,1.902H86.349v16.41h24.716c1,0,1.901,0.9,1.901,1.901v8.306
		c0,1.099-0.901,1.9-1.901,1.9H86.349v17.511h29.618c1.101,0,1.901,0.9,1.901,1.901v8.204c0,1.002-0.801,1.902-1.901,1.902H75.243
		c-1.101,0-1.901-0.9-1.901-1.902V2.903z"/>
	<path clip-path="url(#SVGID_2_)" fill="#003378" d="M127.972,3.403c-0.4-1.4,0.4-2.401,1.801-2.401h9.205
		c0.801,0,1.601,0.7,1.802,1.4l10.406,39.924h0.4l15.909-41.225c0.2-0.599,0.7-1.101,1.702-1.101h1.8
		c1.001,0,1.501,0.502,1.701,1.101l16.01,41.225h0.4l10.206-39.924c0.2-0.7,1.001-1.4,1.801-1.4h9.206
		c1.4,0,2.201,1.001,1.801,2.401l-18.911,67.241c-0.201,0.8-1.001,1.4-1.803,1.4h-1.6c-0.9,0-1.501-0.5-1.701-1.1l-17.911-45.329
		h-0.5l-17.71,45.329c-0.301,0.6-0.701,1.1-1.701,1.1h-1.602c-0.8,0-1.601-0.6-1.801-1.4L127.972,3.403z"/>
</g>
</svg>
