<?xml version="1.0" encoding="utf-8"?>
<!-- Generator: Adobe Illustrator 15.0.2, SVG Export Plug-In  -->
<!DOCTYPE svg PUBLIC "-//W3C//DTD SVG 1.1//EN" "http://www.w3.org/Graphics/SVG/1.1/DTD/svg11.dtd" [
	<!ENTITY ns_flows "http://ns.adobe.com/Flows/1.0/">
]>
<svg version="1.1"
	 xmlns="http://www.w3.org/2000/svg" xmlns:xlink="http://www.w3.org/1999/xlink" xmlns:a="http://ns.adobe.com/AdobeSVGViewerExtensions/3.0/"
	 x="0px" y="0px" width="304px" height="92px" viewBox="0 0 304 92" enable-background="new 0 0 304 92" xml:space="preserve">
<defs>
</defs>
<g>
	<defs>
		<rect id="SVGID_1_" width="304.283" height="91.592"/>
	</defs>
	<clipPath id="SVGID_2_">
		<use xlink:href="#SVGID_1_"  overflow="visible"/>
	</clipPath>
	<path clip-path="url(#SVGID_2_)" fill="#003378" d="M17.258,40.25c-4.836,0-7.749-2.08-7.749-4.524
		c0-1.716,1.301-2.965,3.069-2.965c1.924,0,3.224,1.144,3.588,3.433c0.208,1.195,0.156,2.029,2.601,2.029
		c2.807,0,4.575-1.562,4.575-3.746c0-2.86-1.975-3.848-5.616-5.46c-4.524-2.028-7.072-3.379-7.072-7.073
		c0-4.368,4.316-8.268,10.4-8.268c3.016,0,4.732,1.249,4.732,3.068c0,1.561-1.195,2.704-3.068,2.704
		c-1.248,0-2.132-0.416-2.86-1.351c-0.728-0.937-0.624-2.237-1.404-2.237c-1.872,0-3.9,1.872-3.9,3.588
		c0,2.237,2.08,2.912,5.668,4.472c4.992,2.184,7.54,3.953,7.54,8.218C27.763,36.87,23.707,40.25,17.258,40.25"/>
	<path clip-path="url(#SVGID_2_)" fill="#003378" d="M47.819,21.32c0-2.548-0.364-3.639-2.184-3.639
		c-0.156,0-0.364,0.051-0.624,0.051v-1.975l8.268-2.185c-0.104,1.819-0.156,3.9-0.156,6.188v12.793c0,2.652,0.468,3.952,2.028,3.952
		c0.156,0,0.417,0,0.625-0.051v1.768l-6.085,1.976c-0.884-1.041-1.456-2.497-1.664-4.213c-2.548,2.757-5.148,4.109-8.217,4.109
		c-5.147,0-7.488-3.329-7.488-10.089V21.32c0-2.548-0.364-3.588-2.08-3.588h-0.52v-1.975l8.06-2.185
		c-0.104,1.819-0.208,3.9-0.208,6.188v10.505c0,4.264,1.04,6.292,4.369,6.292c2.704,0,4.523-1.248,5.876-3.797V21.32z"/>
	<path clip-path="url(#SVGID_2_)" fill="#003378" d="M58.423,4.628c-0.208,0-0.469,0-0.677,0.051V2.913L65.807,0
		c-0.104,1.507-0.104,2.963-0.104,4.472v12.844c2.028-2.392,4.316-3.588,6.708-3.588c4.837,0,8.373,4.473,8.373,11.804
		c0,8.944-4.525,14.666-10.557,14.666c-2.652,0-4.94-1.197-7.072-3.641l-3.588,3.588l-0.936-0.623
		c1.456-3.018,1.872-6.762,1.872-11.44V8.581C60.503,5.929,59.879,4.628,58.423,4.628 M65.703,31.357
		c0,4.575,0.988,6.865,4.212,6.865c3.329,0,5.616-3.484,5.616-9.777c0-6.761-2.756-10.764-5.875-10.764
		c-1.457,0-2.809,0.831-3.953,2.495V31.357z"/>
	<path clip-path="url(#SVGID_2_)" fill="#003378" d="M82.707,16.484v-2.027h3.276l0.052-7.178l5.253-2.911l-0.053,10.089h5.877
		v2.027h-5.928L91.08,31.461v0.312c0,3.484,0.936,5.148,3.016,5.148c1.248,0,2.34-0.624,3.588-1.768l0.78,1.301
		c-1.716,2.391-4.16,3.744-6.916,3.744c-4.316,0-5.721-2.392-5.721-7.748v-0.313l0.105-15.653H82.707z"/>
	<path clip-path="url(#SVGID_2_)" fill="#003378" d="M111,37.441v2.028h-10.557v-2.028l2.757-0.26V8.581
		c0-2.652-0.625-3.952-2.081-3.952c-0.208,0-0.468,0-0.676,0.051V2.913L108.503,0c-0.103,1.507-0.156,2.963-0.156,4.472v32.709
		L111,37.441z"/>
	<path clip-path="url(#SVGID_2_)" fill="#003378" d="M115.187,20.904c-0.936-2.288-1.456-3.432-3.016-3.432
		c-0.312,0-0.676,0-1.04,0.104v-1.819l6.864-2.029l7.749,20.177l5.564-11.805c0.156-0.363,0.26-0.675,0.26-0.936
		c0-0.364-1.196-0.676-2.184-1.663c-0.677-0.676-1.041-1.613-1.041-2.497c0-2.028,1.509-3.379,3.536-3.379
		c2.081,0,3.328,1.195,3.328,3.275c0,2.809-3.067,9.257-8.32,19.71c-4.159,8.319-6.292,12.531-9.88,12.531
		c-1.924,0-3.224-1.196-3.224-2.912c0-1.819,1.3-3.068,3.173-3.068c1.664,0,2.651,0.989,3.067,0.989c0.468,0,1.56-1.405,2.756-4.317
		L115.187,20.904z"/>
	<path clip-path="url(#SVGID_2_)" fill="#003378" d="M159.24,40.25c-4.837,0-7.749-2.08-7.749-4.524c0-1.716,1.3-2.965,3.068-2.965
		c1.924,0,3.225,1.144,3.588,3.433c0.209,1.195,0.156,2.029,2.601,2.029c2.809,0,4.576-1.562,4.576-3.746
		c0-2.86-1.976-3.848-5.616-5.46c-4.524-2.028-7.071-3.379-7.071-7.073c0-4.368,4.315-8.268,10.399-8.268
		c3.017,0,4.732,1.249,4.732,3.068c0,1.561-1.196,2.704-3.068,2.704c-1.248,0-2.132-0.416-2.859-1.351
		c-0.729-0.937-0.624-2.237-1.404-2.237c-1.872,0-3.9,1.872-3.9,3.588c0,2.237,2.08,2.912,5.668,4.472
		c4.992,2.184,7.54,3.953,7.54,8.218C169.744,36.87,165.688,40.25,159.24,40.25"/>
	<path clip-path="url(#SVGID_2_)" fill="#003378" d="M171.621,17.473c-0.312,0-0.625,0.053-0.988,0.104v-1.82l6.864-2.028
		l5.929,18.565l6.031-18.253h1.664l6.604,18.876l4.421-10.713c0.156-0.363,0.208-0.623,0.208-0.831c0-0.519-0.572-0.675-1.404-1.3
		c-1.092-0.831-1.665-1.82-1.665-3.069c0-2.079,1.457-3.379,3.329-3.379s3.069,1.196,3.069,3.328c0,4.368-4.161,11.441-8.321,22.88
		h-2.132l-6.293-17.316l-5.72,17.316h-2.445l-6.084-18.928C173.961,18.565,173.182,17.473,171.621,17.473"/>
	<path clip-path="url(#SVGID_2_)" fill="#003378" d="M218.049,40.198c-5.876,0-10.089-4.785-10.089-12.169
		c0-8.425,4.837-14.404,10.557-14.404c4.681,0,8.218,3.691,8.997,10.036l-14.404,3.849c0.884,5.616,3.379,8.735,7.228,8.735
		c2.133,0,3.9-1.195,5.669-3.691l1.664,1.299C225.434,38.014,222.053,40.198,218.049,40.198 M218.049,23.869
		c2.602-0.78,3.849-1.249,3.849-3.381c0-2.806-1.717-4.888-3.797-4.888c-3.224,0-5.199,3.225-5.199,9.414v0.467L218.049,23.869z"/>
	<path clip-path="url(#SVGID_2_)" fill="#003378" d="M240.602,40.198c-5.876,0-10.089-4.785-10.089-12.169
		c0-8.425,4.836-14.404,10.557-14.404c4.681,0,8.218,3.691,8.997,10.036l-14.404,3.849c0.884,5.616,3.379,8.735,7.228,8.735
		c2.133,0,3.9-1.195,5.668-3.691l1.665,1.299C247.986,38.014,244.605,40.198,240.602,40.198 M240.602,23.869
		c2.602-0.78,3.848-1.249,3.848-3.381c0-2.806-1.716-4.888-3.796-4.888c-3.224,0-5.199,3.225-5.199,9.414v0.467L240.602,23.869z"/>
	<path clip-path="url(#SVGID_2_)" fill="#003378" d="M251.76,16.484v-2.027h3.276l0.052-7.178l5.253-2.911l-0.053,10.089h5.877
		v2.027h-5.928l-0.104,14.977v0.312c0,3.484,0.937,5.148,3.016,5.148c1.248,0,2.341-0.624,3.589-1.768l0.78,1.301
		c-1.717,2.391-4.161,3.744-6.917,3.744c-4.316,0-5.721-2.392-5.721-7.748v-0.313l0.105-15.653H251.76z"/>
	<path clip-path="url(#SVGID_2_)" fill="#003378" d="M273.817,39.833c-2.08-1.091-3.12-2.548-3.12-4.315
		c0-1.924,1.3-3.277,3.276-3.277c2.028,0,3.483,1.613,3.483,4.057c0,3.224-2.34,7.019-7.072,10.713l-1.248-1.405
		C271.425,43.578,272.984,41.654,273.817,39.833"/>
	<path clip-path="url(#SVGID_2_)" fill="#003378" d="M0,55.659c0-0.521,0.416-0.988,0.988-0.988h21.164
		c0.573,0,0.989,0.468,0.989,0.988v4.263c0,0.521-0.416,0.988-0.989,0.988H6.76v9.777h12.845c0.519,0,0.988,0.468,0.988,0.988v4.265
		c0,0.52-0.469,0.988-0.988,0.988H6.76v13.155c0,0.52-0.468,0.988-0.988,0.988H0.988C0.416,91.072,0,90.604,0,90.084V55.659z"/>
	<path clip-path="url(#SVGID_2_)" fill="#003378" d="M28.019,55.659c0-0.521,0.416-0.988,0.988-0.988H43.88
		c6.24,0,11.337,4.991,11.337,11.18c0,4.784-3.172,8.685-7.697,10.505l7.125,13.208c0.364,0.677,0,1.509-0.884,1.509H48.3
		c-0.468,0-0.728-0.26-0.832-0.469l-6.916-13.78H34.78v13.261c0,0.52-0.468,0.988-0.988,0.988h-4.785
		c-0.572,0-0.988-0.469-0.988-0.988V55.659z M43.308,71.26c2.756,0,5.148-2.394,5.148-5.305c0-2.756-2.392-5.045-5.148-5.045h-8.477
		v10.35H43.308z"/>
	<path clip-path="url(#SVGID_2_)" fill="#003378" d="M61.863,55.659c0-0.521,0.416-0.988,0.988-0.988h21.164
		c0.573,0,0.989,0.468,0.989,0.988v4.263c0,0.521-0.416,0.988-0.989,0.988H68.624v8.528h12.845c0.519,0,0.988,0.469,0.988,0.99
		v4.314c0,0.572-0.469,0.988-0.988,0.988H68.624v9.101h15.392c0.573,0,0.989,0.469,0.989,0.987v4.265
		c0,0.52-0.416,0.988-0.989,0.988H62.852c-0.572,0-0.988-0.469-0.988-0.988V55.659z"/>
	<path clip-path="url(#SVGID_2_)" fill="#003378" d="M89.544,85.976l1.872-3.225c0.416-0.727,1.3-0.727,1.768-0.363
		c0.26,0.156,4.472,3.225,7.853,3.225c2.704,0,4.732-1.769,4.732-4.005c0-2.651-2.236-4.473-6.604-6.238
		c-4.889-1.979-9.777-5.098-9.777-11.234c0-4.628,3.432-9.984,11.7-9.984c5.305,0,9.361,2.703,10.401,3.484
		c0.52,0.312,0.676,1.196,0.312,1.716l-1.976,2.965c-0.416,0.623-1.196,1.04-1.82,0.623c-0.416-0.26-4.369-2.859-7.228-2.859
		c-2.964,0-4.577,1.977-4.577,3.64c0,2.445,1.924,4.109,6.136,5.825c5.045,2.027,10.869,5.044,10.869,11.752
		c0,5.356-4.628,10.296-11.961,10.296c-6.552,0-10.4-3.067-11.44-4.056C89.336,87.068,89.076,86.808,89.544,85.976"/>
	<path clip-path="url(#SVGID_2_)" fill="#003378" d="M119.233,55.659c0-0.521,0.468-0.988,0.988-0.988h4.836
		c0.572,0,0.988,0.468,0.988,0.988v13.779h16.953V55.659c0-0.521,0.416-0.988,0.987-0.988h4.785c0.52,0,0.988,0.468,0.988,0.988
		v34.425c0,0.52-0.468,0.988-0.988,0.988h-4.785c-0.571,0-0.987-0.469-0.987-0.988V75.731h-16.953v14.353
		c0,0.52-0.416,0.988-0.988,0.988h-4.836c-0.52,0-0.988-0.469-0.988-0.988V55.659z"/>
	<path clip-path="url(#SVGID_2_)" fill="#003378" d="M175.612,60.91h-7.956c-0.571,0-0.986-0.467-0.986-0.988v-4.263
		c0-0.521,0.415-0.988,0.986-0.988h22.727c0.57,0,0.986,0.468,0.986,0.988v4.263c0,0.521-0.416,0.988-0.986,0.988h-7.958v29.174
		c0,0.52-0.468,0.988-0.987,0.988h-4.837c-0.52,0-0.988-0.469-0.988-0.988V60.91z"/>
	<path clip-path="url(#SVGID_2_)" fill="#003378" d="M188.841,89.72l16.173-34.998c0.156-0.311,0.416-0.571,0.884-0.571h0.521
		c0.521,0,0.729,0.261,0.884,0.571l16.017,34.998c0.313,0.677-0.104,1.353-0.884,1.353h-4.524c-0.779,0-1.144-0.313-1.508-1.04
		l-2.548-5.616h-15.549l-2.549,5.616c-0.208,0.521-0.675,1.04-1.508,1.04h-4.523C188.945,91.072,188.53,90.396,188.841,89.72
		 M211.306,78.644l-5.2-11.439h-0.154l-5.098,11.439H211.306z"/>
	<path clip-path="url(#SVGID_2_)" fill="#003378" d="M226.056,85.976l1.872-3.225c0.415-0.727,1.3-0.727,1.768-0.363
		c0.26,0.156,4.473,3.225,7.853,3.225c2.704,0,4.733-1.769,4.733-4.005c0-2.651-2.237-4.473-6.605-6.238
		c-4.888-1.979-9.776-5.098-9.776-11.234c0-4.628,3.433-9.984,11.7-9.984c5.306,0,9.36,2.703,10.401,3.484
		c0.52,0.312,0.675,1.196,0.312,1.716l-1.976,2.965c-0.416,0.623-1.197,1.04-1.82,0.623c-0.416-0.26-4.369-2.859-7.229-2.859
		c-2.963,0-4.576,1.977-4.576,3.64c0,2.445,1.924,4.109,6.136,5.825c5.045,2.027,10.869,5.044,10.869,11.752
		c0,5.356-4.629,10.296-11.961,10.296c-6.552,0-10.4-3.067-11.44-4.056C225.848,87.068,225.588,86.808,226.056,85.976"/>
	<path clip-path="url(#SVGID_2_)" fill="#003378" d="M261.038,60.91h-7.957c-0.571,0-0.987-0.467-0.987-0.988v-4.263
		c0-0.521,0.416-0.988,0.987-0.988h22.727c0.571,0,0.986,0.468,0.986,0.988v4.263c0,0.521-0.415,0.988-0.986,0.988h-7.957v29.174
		c0,0.52-0.469,0.988-0.988,0.988h-4.837c-0.52,0-0.987-0.469-0.987-0.988V60.91z"/>
	<path clip-path="url(#SVGID_2_)" fill="#003378" d="M281.142,55.659c0-0.521,0.416-0.988,0.987-0.988h21.165
		c0.573,0,0.989,0.468,0.989,0.988v4.263c0,0.521-0.416,0.988-0.989,0.988h-15.393v8.528h12.845c0.52,0,0.988,0.469,0.988,0.99
		v4.314c0,0.572-0.469,0.988-0.988,0.988h-12.845v9.101h15.393c0.573,0,0.989,0.469,0.989,0.987v4.265
		c0,0.52-0.416,0.988-0.989,0.988h-21.165c-0.571,0-0.987-0.469-0.987-0.988V55.659z"/>
</g>
</svg>
